<svg width="25" height="25" viewBox="0 0 25 25" fill="none" xmlns="http://www.w3.org/2000/svg">
<g id="akar-icons:instagram-fill">
<path id="Vector" fill-rule="evenodd" clip-rule="evenodd" d="M7.77612 1.11038C8.998 1.05413 9.38758 1.04163 12.5001 1.04163C15.6126 1.04163 16.0022 1.05517 17.223 1.11038C18.4438 1.16558 19.2772 1.36038 20.0063 1.64267C20.7699 1.93121 21.4626 2.38225 22.0355 2.96558C22.6188 3.53746 23.0688 4.22913 23.3563 4.99371C23.6397 5.72288 23.8334 6.55621 23.8897 7.77496C23.9459 8.99892 23.9584 9.3885 23.9584 12.5C23.9584 15.6125 23.9449 16.002 23.8897 17.2239C23.8345 18.4427 23.6397 19.276 23.3563 20.0052C23.0688 20.7698 22.6181 21.4627 22.0355 22.0354C21.4626 22.6187 20.7699 23.0687 20.0063 23.3562C19.2772 23.6395 18.4438 23.8333 17.2251 23.8895C16.0022 23.9458 15.6126 23.9583 12.5001 23.9583C9.38758 23.9583 8.998 23.9447 7.77612 23.8895C6.55737 23.8343 5.72404 23.6395 4.99487 23.3562C4.23021 23.0687 3.53739 22.6179 2.96466 22.0354C2.38173 21.4632 1.93062 20.7707 1.64279 20.0062C1.3605 19.277 1.16675 18.4437 1.1105 17.225C1.05425 16.001 1.04175 15.6114 1.04175 12.5C1.04175 9.38746 1.05529 8.99788 1.1105 7.77704C1.16571 6.55621 1.3605 5.72288 1.64279 4.99371C1.93104 4.22921 2.3825 3.53674 2.96571 2.96454C3.53762 2.38173 4.22974 1.93063 4.99383 1.64267C5.723 1.36038 6.55633 1.16663 7.77508 1.11038H7.77612ZM17.1303 3.17288C15.922 3.11767 15.5595 3.10621 12.5001 3.10621C9.44071 3.10621 9.07821 3.11767 7.86987 3.17288C6.75216 3.22392 6.14591 3.41038 5.74175 3.56767C5.20737 3.776 4.82508 4.02288 4.42404 4.42392C4.04388 4.79376 3.75131 5.244 3.56779 5.74163C3.4105 6.14579 3.22404 6.75204 3.173 7.86975C3.11779 9.07808 3.10633 9.44058 3.10633 12.5C3.10633 15.5593 3.11779 15.9218 3.173 17.1302C3.22404 18.2479 3.4105 18.8541 3.56779 19.2583C3.75112 19.7552 4.04383 20.2062 4.42404 20.576C4.79383 20.9562 5.24487 21.2489 5.74175 21.4323C6.14591 21.5895 6.75216 21.776 7.86987 21.827C9.07821 21.8822 9.43966 21.8937 12.5001 21.8937C15.5605 21.8937 15.922 21.8822 17.1303 21.827C18.248 21.776 18.8542 21.5895 19.2584 21.4323C19.7928 21.2239 20.1751 20.977 20.5761 20.576C20.9563 20.2062 21.249 19.7552 21.4324 19.2583C21.5897 18.8541 21.7761 18.2479 21.8272 17.1302C21.8824 15.9218 21.8938 15.5593 21.8938 12.5C21.8938 9.44058 21.8824 9.07808 21.8272 7.86975C21.7761 6.75204 21.5897 6.14579 21.4324 5.74163C21.224 5.20725 20.9772 4.82496 20.5761 4.42392C20.2063 4.04378 19.756 3.75122 19.2584 3.56767C18.8542 3.41038 18.248 3.22392 17.1303 3.17288ZM11.0365 16.0323C11.8539 16.3725 12.764 16.4184 13.6115 16.1622C14.4589 15.9059 15.1911 15.3634 15.683 14.6273C16.1749 13.8912 16.396 13.0071 16.3085 12.1261C16.221 11.2451 15.8303 10.4218 15.2032 9.79683C14.8035 9.39733 14.3201 9.09143 13.7879 8.90115C13.2558 8.71088 12.688 8.64096 12.1256 8.69643C11.5632 8.75191 11.02 8.93139 10.5353 9.22197C10.0506 9.51255 9.63627 9.90698 9.32227 10.3769C9.00827 10.8468 8.80236 11.3805 8.71937 11.9395C8.63638 12.4985 8.67836 13.069 8.84231 13.6099C9.00626 14.1507 9.28808 14.6485 9.6675 15.0674C10.0469 15.4862 10.5145 15.8158 11.0365 16.0323ZM8.3355 8.33538C8.8824 7.78847 9.53166 7.35465 10.2462 7.05867C10.9608 6.76269 11.7266 6.61035 12.5001 6.61035C13.2735 6.61035 14.0394 6.76269 14.7539 7.05867C15.4685 7.35465 16.1178 7.78847 16.6647 8.33538C17.2116 8.88228 17.6454 9.53154 17.9414 10.2461C18.2374 10.9607 18.3897 11.7265 18.3897 12.5C18.3897 13.2734 18.2374 14.0393 17.9414 14.7538C17.6454 15.4684 17.2116 16.1176 16.6647 16.6645C15.5601 17.7691 14.0621 18.3896 12.5001 18.3896C10.9381 18.3896 9.44001 17.7691 8.3355 16.6645C7.23098 15.56 6.61047 14.062 6.61047 12.5C6.61047 10.9379 7.23098 9.43989 8.3355 8.33538ZM19.6959 7.48746C19.8314 7.35961 19.9399 7.20588 20.015 7.03535C20.09 6.86482 20.1301 6.68097 20.1328 6.49468C20.1355 6.30839 20.1008 6.12345 20.0308 5.9508C19.9608 5.77816 19.8568 5.62132 19.725 5.48958C19.5933 5.35784 19.4365 5.25387 19.2638 5.18383C19.0912 5.11379 18.9062 5.0791 18.7199 5.08182C18.5337 5.08453 18.3498 5.1246 18.1793 5.19964C18.0087 5.27469 17.855 5.38318 17.7272 5.51871C17.4785 5.78228 17.3424 6.13238 17.3477 6.49468C17.353 6.85698 17.4992 7.20296 17.7555 7.45917C18.0117 7.71538 18.3576 7.86166 18.7199 7.86694C19.0822 7.87222 19.4323 7.73609 19.6959 7.48746Z" fill="black" fill-opacity="0.59"/>
</g>
</svg>
