<svg width="32" height="34" viewBox="0 0 32 34" fill="none" xmlns="http://www.w3.org/2000/svg">
<g id="akar-icons:youtube-fill" clip-path="url(#clip0_35_120)">
<g id="Group">
<g id="Group_2">
<path id="Vector" d="M31.3337 9.21828C31.1525 8.53152 30.7995 7.90977 30.3123 7.41911C29.8114 6.91337 29.1974 6.55159 28.5283 6.36794C26.0243 5.66669 15.9923 5.66669 15.9923 5.66669C11.8101 5.61614 7.62891 5.8385 3.47233 6.33253C2.80326 6.52974 2.19042 6.8996 1.68833 7.40919C1.195 7.91353 0.837668 8.53544 0.651001 9.21686C0.202592 11.7835 -0.015276 14.3896 0.00033463 17C-0.0156654 19.6081 0.201668 22.2134 0.651001 24.7832C0.833668 25.4618 1.18967 26.0809 1.68433 26.5809C2.179 27.081 2.795 27.4423 3.47233 27.6335C6.00967 28.3334 15.9923 28.3334 15.9923 28.3334C20.1799 28.384 24.3664 28.1616 28.5283 27.6675C29.1974 27.4839 29.8114 27.1221 30.3123 26.6164C30.7994 26.1258 31.1519 25.504 31.3323 24.8172C31.7925 22.2515 32.0162 19.6444 32.0003 17.0326C32.0349 14.4098 31.8115 11.7903 31.3337 9.21686V9.21828ZM12.803 21.8507V12.1508L21.1497 17.0014L12.803 21.8507Z" fill="black" fill-opacity="0.59"/>
</g>
</g>
</g>
<defs>
<clipPath id="clip0_35_120">
<rect width="32" height="34" fill="white"/>
</clipPath>
</defs>
</svg>
