<svg width="147" height="53" viewBox="0 0 147 53" fill="none" xmlns="http://www.w3.org/2000/svg">
<g id="BUTTON">
<rect x="0.5" y="0.5" width="146" height="52" stroke="#0F0D0D"/>
<g id="SHOP NOW">
<path d="M27.5495 32.252C26.6675 32.252 25.859 32.0945 25.124 31.7795C24.389 31.4575 23.7975 30.985 23.3495 30.362C22.9015 29.739 22.6705 28.969 22.6565 28.052H24.2525C24.2525 28.668 24.403 29.1755 24.704 29.5745C25.005 29.9665 25.404 30.2605 25.901 30.4565C26.398 30.6455 26.9405 30.74 27.5285 30.74C28.1655 30.74 28.7185 30.6385 29.1875 30.4355C29.6565 30.2325 30.017 29.9665 30.269 29.6375C30.528 29.3015 30.6575 28.934 30.6575 28.535C30.6575 27.975 30.486 27.5235 30.143 27.1805C29.8 26.8305 29.2925 26.547 28.6205 26.33L26.2895 25.511C25.1975 25.119 24.3715 24.671 23.8115 24.167C23.2515 23.663 22.9715 22.956 22.9715 22.046C22.9715 21.024 23.3635 20.191 24.1475 19.547C24.9385 18.903 26.0585 18.581 27.5075 18.581C28.8515 18.581 29.9015 18.8925 30.6575 19.5155C31.4135 20.1315 31.8475 20.961 31.9595 22.004H30.3425C30.2375 21.395 29.9505 20.9225 29.4815 20.5865C29.0195 20.2435 28.3615 20.072 27.5075 20.072C26.6395 20.072 25.964 20.2645 25.481 20.6495C24.998 21.0345 24.7565 21.521 24.7565 22.109C24.7565 22.592 24.907 22.977 25.208 23.264C25.516 23.544 25.9955 23.796 26.6465 24.02L29.3765 24.965C30.3215 25.28 31.067 25.721 31.613 26.288C32.166 26.855 32.4425 27.59 32.4425 28.493C32.4425 29.193 32.2535 29.8265 31.8755 30.3935C31.5045 30.9605 30.955 31.412 30.227 31.748C29.499 32.084 28.6065 32.252 27.5495 32.252Z" fill="black"/>
<path d="M36.0228 18.812H37.6608V24.629H44.1918V18.812H45.8088V32H44.1918V26.036H37.6608V32H36.0228V18.812Z" fill="black"/>
<path d="M54.7327 32.252C53.6407 32.252 52.6642 32 51.8032 31.496C50.9422 30.992 50.2632 30.236 49.7662 29.228C49.2692 28.213 49.0207 26.946 49.0207 25.427C49.0207 23.887 49.2692 22.613 49.7662 21.605C50.2632 20.59 50.9422 19.834 51.8032 19.337C52.6642 18.833 53.6407 18.581 54.7327 18.581C55.8247 18.581 56.8012 18.833 57.6622 19.337C58.5232 19.841 59.2022 20.6005 59.6992 21.6155C60.1962 22.6305 60.4447 23.901 60.4447 25.427C60.4447 26.96 60.1962 28.234 59.6992 29.249C59.2022 30.257 58.5232 31.0095 57.6622 31.5065C56.8012 32.0035 55.8247 32.252 54.7327 32.252ZM54.7327 30.74C55.9717 30.74 56.9482 30.2885 57.6622 29.3855C58.3832 28.4825 58.7437 27.156 58.7437 25.406C58.7437 23.691 58.3832 22.3715 57.6622 21.4475C56.9482 20.5165 55.9717 20.051 54.7327 20.051C53.5077 20.051 52.5312 20.5165 51.8032 21.4475C51.0822 22.3785 50.7217 23.705 50.7217 25.427C50.7217 27.17 51.0822 28.493 51.8032 29.396C52.5312 30.292 53.5077 30.74 54.7327 30.74Z" fill="black"/>
<path d="M63.5843 32V18.812H67.8263C69.2753 18.812 70.3813 19.1795 71.1443 19.9145C71.9143 20.6425 72.2993 21.633 72.2993 22.886C72.2993 24.125 71.9143 25.1085 71.1443 25.8365C70.3813 26.5575 69.2753 26.918 67.8263 26.918H65.2433V32H63.5843ZM65.2433 25.49H67.8263C68.7433 25.49 69.4363 25.2555 69.9053 24.7865C70.3813 24.3175 70.6193 23.684 70.6193 22.886C70.6193 22.074 70.3813 21.4265 69.9053 20.9435C69.4363 20.4605 68.7433 20.219 67.8263 20.219H65.2433V25.49Z" fill="black"/>
<path d="M80.2167 18.812H82.1697L88.8687 29.669H88.7217V18.812H90.3597V32H88.5327L81.6027 20.786H81.8547V32H80.2167V18.812Z" fill="black"/>
<path d="M99.2551 32.252C98.1631 32.252 97.1866 32 96.3256 31.496C95.4646 30.992 94.7856 30.236 94.2886 29.228C93.7916 28.213 93.5431 26.946 93.5431 25.427C93.5431 23.887 93.7916 22.613 94.2886 21.605C94.7856 20.59 95.4646 19.834 96.3256 19.337C97.1866 18.833 98.1631 18.581 99.2551 18.581C100.347 18.581 101.324 18.833 102.185 19.337C103.046 19.841 103.725 20.6005 104.222 21.6155C104.719 22.6305 104.967 23.901 104.967 25.427C104.967 26.96 104.719 28.234 104.222 29.249C103.725 30.257 103.046 31.0095 102.185 31.5065C101.324 32.0035 100.347 32.252 99.2551 32.252ZM99.2551 30.74C100.494 30.74 101.471 30.2885 102.185 29.3855C102.906 28.4825 103.266 27.156 103.266 25.406C103.266 23.691 102.906 22.3715 102.185 21.4475C101.471 20.5165 100.494 20.051 99.2551 20.051C98.0301 20.051 97.0536 20.5165 96.3256 21.4475C95.6046 22.3785 95.2441 23.705 95.2441 25.427C95.2441 27.17 95.6046 28.493 96.3256 29.396C97.0536 30.292 98.0301 30.74 99.2551 30.74Z" fill="black"/>
<path d="M106.322 18.812H108.17L111.593 30.551H111.11L114.617 20.177H115.73L119.195 30.467H118.733L122.66 18.812H124.487L119.825 32H118.103L115.058 23.054H115.373L112.223 32H110.501L106.322 18.812Z" fill="black"/>
</g>
</g>
</svg>
