<svg width="37" height="37" viewBox="0 0 37 37" fill="none" xmlns="http://www.w3.org/2000/svg">
<path d="M25.4375 11.5625V15.0312C25.4375 15.3379 25.3157 15.632 25.0988 15.8488C24.882 16.0657 24.5879 16.1875 24.2812 16.1875H23.125V11.5625H13.875V16.1875H12.7188C12.4121 16.1875 12.118 16.0657 11.9012 15.8488C11.6843 15.632 11.5625 15.3379 11.5625 15.0312V11.5625H6.9375V32.375H30.0625V11.5625H25.4375ZM11.5625 9.25C11.5625 7.41006 12.2934 5.64548 13.5944 4.34445C14.8955 3.04341 16.6601 2.3125 18.5 2.3125C20.3399 2.3125 22.1045 3.04341 23.4056 4.34445C24.7066 5.64548 25.4375 7.41006 25.4375 9.25H31.2188C31.5254 9.25 31.8195 9.37182 32.0363 9.58866C32.2532 9.8055 32.375 10.0996 32.375 10.4062V33.5312C32.375 33.8379 32.2532 34.132 32.0363 34.3488C31.8195 34.5657 31.5254 34.6875 31.2188 34.6875H5.78125C5.47459 34.6875 5.1805 34.5657 4.96366 34.3488C4.74682 34.132 4.625 33.8379 4.625 33.5312V10.4062C4.625 10.0996 4.74682 9.8055 4.96366 9.58866C5.1805 9.37182 5.47459 9.25 5.78125 9.25H11.5625ZM13.875 9.25H23.125C23.125 8.02337 22.6377 6.84699 21.7704 5.97963C20.903 5.11228 19.7266 4.625 18.5 4.625C17.2734 4.625 16.097 5.11228 15.2296 5.97963C14.3623 6.84699 13.875 8.02337 13.875 9.25Z" fill="#B18165"/>
<path d="M6.9375 25.4375H30.0625V27.75H6.9375V25.4375Z" fill="#B18165"/>
</svg>
