<svg width="37" height="37" viewBox="0 0 37 37" fill="none" xmlns="http://www.w3.org/2000/svg">
<g id="Property 1=Default">
<path id="Vector" d="M33.3506 10.2473C32.8663 9.12586 32.1679 8.10963 31.2946 7.25549C30.4207 6.39881 29.3903 5.71801 28.2595 5.25012C27.0869 4.76303 25.8292 4.5137 24.5595 4.51663C22.7781 4.51663 21.0401 5.00442 19.5298 5.92581C19.1685 6.14622 18.8252 6.38831 18.5 6.65208C18.1748 6.38831 17.8315 6.14622 17.4702 5.92581C15.9599 5.00442 14.2219 4.51663 12.4405 4.51663C11.1578 4.51663 9.91484 4.76233 8.74053 5.25012C7.60596 5.71985 6.5834 6.39553 5.70537 7.25549C4.83095 8.10867 4.13243 9.12514 3.64941 10.2473C3.14717 11.4144 2.89062 12.6537 2.89062 13.9292C2.89062 15.1324 3.13633 16.3863 3.62412 17.6617C4.03242 18.7277 4.61777 19.8333 5.36572 20.9498C6.55088 22.7167 8.18047 24.5595 10.2039 26.4276C13.557 29.5241 16.8776 31.6632 17.0186 31.7499L17.8749 32.2991C18.2543 32.5412 18.7421 32.5412 19.1215 32.2991L19.9778 31.7499C20.1188 31.6596 23.4357 29.5241 26.7925 26.4276C28.8159 24.5595 30.4455 22.7167 31.6307 20.9498C32.3786 19.8333 32.9676 18.7277 33.3723 17.6617C33.8601 16.3863 34.1058 15.1324 34.1058 13.9292C34.1094 12.6537 33.8528 11.4144 33.3506 10.2473ZM18.5 29.441C18.5 29.441 5.63672 21.1991 5.63672 13.9292C5.63672 10.2473 8.68271 7.26272 12.4405 7.26272C15.0818 7.26272 17.3727 8.73694 18.5 10.8905C19.6273 8.73694 21.9182 7.26272 24.5595 7.26272C28.3173 7.26272 31.3633 10.2473 31.3633 13.9292C31.3633 21.1991 18.5 29.441 18.5 29.441Z" fill="#656565" fill-opacity="0.84"/>
</g>
</svg>
