<svg width="401" height="41" viewBox="0 0 401 41" fill="none" xmlns="http://www.w3.org/2000/svg">
<path fill-rule="evenodd" clip-rule="evenodd" d="M369 8.838C369 8.35053 369.194 7.88303 369.538 7.53834C369.883 7.19365 370.351 7 370.838 7H389.16C389.402 6.99961 389.641 7.04687 389.864 7.13907C390.087 7.23127 390.29 7.36661 390.461 7.53734C390.632 7.70807 390.768 7.91083 390.86 8.13401C390.953 8.3572 391 8.59643 391 8.838V27.16C391 27.4016 390.953 27.6409 390.861 27.8642C390.768 28.0875 390.633 28.2904 390.462 28.4613C390.291 28.6322 390.088 28.7678 389.865 28.8602C389.642 28.9526 389.403 29.0001 389.161 29H370.838C370.597 29 370.357 28.9524 370.134 28.86C369.911 28.7676 369.709 28.6321 369.538 28.4613C369.367 28.2905 369.232 28.0878 369.14 27.8647C369.047 27.6416 369 27.4025 369 27.161V8.838ZM377.708 15.388H380.687V16.884C381.117 16.024 382.217 15.25 383.87 15.25C387.039 15.25 387.79 16.963 387.79 20.106V25.928H384.583V20.822C384.583 19.032 384.153 18.022 383.061 18.022C381.546 18.022 380.916 19.111 380.916 20.822V25.928H377.708V15.388ZM372.208 25.791H375.416V15.25H372.208V25.79V25.791ZM375.875 11.812C375.881 12.0867 375.832 12.3598 375.731 12.6153C375.63 12.8708 375.479 13.1036 375.287 13.3C375.095 13.4964 374.866 13.6525 374.612 13.759C374.359 13.8655 374.087 13.9204 373.812 13.9204C373.538 13.9204 373.266 13.8655 373.013 13.759C372.759 13.6525 372.53 13.4964 372.338 13.3C372.146 13.1036 371.995 12.8708 371.894 12.6153C371.793 12.3598 371.744 12.0867 371.75 11.812C371.762 11.2729 371.984 10.7598 372.37 10.3827C372.755 10.0056 373.273 9.79442 373.812 9.79442C374.352 9.79442 374.87 10.0056 375.255 10.3827C375.641 10.7598 375.863 11.2729 375.875 11.812Z" fill="black" fill-opacity="0.59"/>
<g clip-path="url(#clip0_35_117)">
<path d="M304.334 10.2183C304.152 9.53152 303.8 8.90977 303.312 8.41911C302.811 7.91337 302.197 7.55159 301.528 7.36794C299.024 6.66669 288.992 6.66669 288.992 6.66669C284.81 6.61614 280.629 6.8385 276.472 7.33253C275.803 7.52974 275.19 7.8996 274.688 8.40919C274.195 8.91353 273.838 9.53544 273.651 10.2169C273.203 12.7835 272.985 15.3896 273 18C272.984 20.6081 273.202 23.2134 273.651 25.7832C273.834 26.4618 274.19 27.0809 274.684 27.5809C275.179 28.081 275.795 28.4423 276.472 28.6335C279.01 29.3334 288.992 29.3334 288.992 29.3334C293.18 29.384 297.366 29.1616 301.528 28.6675C302.197 28.4839 302.811 28.1221 303.312 27.6164C303.799 27.1258 304.152 26.504 304.332 25.8172C304.792 23.2515 305.016 20.6444 305 18.0326C305.035 15.4098 304.812 12.7903 304.334 10.2169V10.2183ZM285.803 22.8507V13.1508L294.15 18.0014L285.803 22.8507Z" fill="black" fill-opacity="0.59"/>
</g>
<path d="M201.501 6.41907C194.829 6.41907 189.419 11.8288 189.419 18.5012C189.419 24.5308 193.837 29.5284 199.614 30.4383V21.9945H196.544V18.5012H199.614V15.8392C199.614 12.8087 201.418 11.1376 204.176 11.1376C205.498 11.1376 206.883 11.3732 206.883 11.3732V14.3445H205.356C203.857 14.3445 203.388 15.2774 203.388 16.2332V18.4988H206.737L206.201 21.9921H203.388V30.4359C209.166 29.5309 213.583 24.532 213.583 18.5012C213.583 11.8288 208.173 6.41907 201.501 6.41907Z" fill="black" fill-opacity="0.59"/>
<path d="M124.628 11.1427C123.758 11.5281 122.824 11.7885 121.842 11.9062C122.855 11.2998 123.614 10.3453 123.975 9.22081C123.023 9.78643 121.981 10.1846 120.894 10.3979C120.163 9.61755 119.195 9.10032 118.14 8.92651C117.085 8.75271 116.002 8.93205 115.06 9.4367C114.117 9.94135 113.368 10.7431 112.927 11.7174C112.487 12.6917 112.381 13.7841 112.625 14.825C110.696 14.7281 108.808 14.2266 107.085 13.353C105.362 12.4794 103.842 11.2533 102.623 9.75415C102.206 10.4729 101.967 11.3062 101.967 12.1937C101.966 12.9927 102.163 13.7794 102.539 14.4841C102.916 15.1888 103.461 15.7896 104.125 16.2333C103.354 16.2088 102.601 16.0006 101.927 15.626V15.6885C101.927 16.8091 102.315 17.8952 103.024 18.7625C103.734 19.6298 104.721 20.2249 105.82 20.4469C105.105 20.6403 104.356 20.6688 103.628 20.5302C103.938 21.4944 104.542 22.3375 105.355 22.9416C106.167 23.5456 107.149 23.8804 108.161 23.8989C106.443 25.2483 104.32 25.9803 102.134 25.9771C101.747 25.9772 101.361 25.9546 100.976 25.9094C103.194 27.3356 105.776 28.0925 108.414 28.0896C117.341 28.0896 122.221 20.6958 122.221 14.2833C122.221 14.075 122.216 13.8646 122.206 13.6562C123.156 12.9697 123.975 12.1197 124.626 11.1458L124.628 11.1427Z" fill="black" fill-opacity="0.59"/>
<path fill-rule="evenodd" clip-rule="evenodd" d="M14.7761 7.11038C15.998 7.05413 16.3876 7.04163 19.5001 7.04163C22.6126 7.04163 23.0022 7.05517 24.223 7.11038C25.4438 7.16558 26.2772 7.36038 27.0063 7.64267C27.7699 7.93121 28.4626 8.38225 29.0355 8.96558C29.6188 9.53746 30.0688 10.2291 30.3563 10.9937C30.6397 11.7229 30.8334 12.5562 30.8897 13.775C30.9459 14.9989 30.9584 15.3885 30.9584 18.5C30.9584 21.6125 30.9449 22.002 30.8897 23.2239C30.8345 24.4427 30.6397 25.276 30.3563 26.0052C30.0688 26.7698 29.6181 27.4627 29.0355 28.0354C28.4626 28.6187 27.7699 29.0687 27.0063 29.3562C26.2772 29.6395 25.4438 29.8333 24.2251 29.8895C23.0022 29.9458 22.6126 29.9583 19.5001 29.9583C16.3876 29.9583 15.998 29.9447 14.7761 29.8895C13.5574 29.8343 12.724 29.6395 11.9949 29.3562C11.2302 29.0687 10.5374 28.6179 9.96466 28.0354C9.38173 27.4632 8.93062 26.7707 8.64279 26.0062C8.3605 25.277 8.16675 24.4437 8.1105 23.225C8.05425 22.001 8.04175 21.6114 8.04175 18.5C8.04175 15.3875 8.05529 14.9979 8.1105 13.777C8.16571 12.5562 8.3605 11.7229 8.64279 10.9937C8.93104 10.2292 9.3825 9.53674 9.96571 8.96454C10.5376 8.38173 11.2297 7.93063 11.9938 7.64267C12.723 7.36038 13.5563 7.16663 14.7751 7.11038H14.7761ZM24.1303 9.17288C22.922 9.11767 22.5595 9.10621 19.5001 9.10621C16.4407 9.10621 16.0782 9.11767 14.8699 9.17288C13.7522 9.22392 13.1459 9.41038 12.7417 9.56767C12.2074 9.776 11.8251 10.0229 11.424 10.4239C11.0439 10.7938 10.7513 11.244 10.5678 11.7416C10.4105 12.1458 10.224 12.752 10.173 13.8698C10.1178 15.0781 10.1063 15.4406 10.1063 18.5C10.1063 21.5593 10.1178 21.9218 10.173 23.1302C10.224 24.2479 10.4105 24.8541 10.5678 25.2583C10.7511 25.7552 11.0438 26.2062 11.424 26.576C11.7938 26.9562 12.2449 27.2489 12.7417 27.4323C13.1459 27.5895 13.7522 27.776 14.8699 27.827C16.0782 27.8822 16.4397 27.8937 19.5001 27.8937C22.5605 27.8937 22.922 27.8822 24.1303 27.827C25.248 27.776 25.8542 27.5895 26.2584 27.4323C26.7928 27.2239 27.1751 26.977 27.5761 26.576C27.9563 26.2062 28.249 25.7552 28.4324 25.2583C28.5897 24.8541 28.7761 24.2479 28.8272 23.1302C28.8824 21.9218 28.8938 21.5593 28.8938 18.5C28.8938 15.4406 28.8824 15.0781 28.8272 13.8698C28.7761 12.752 28.5897 12.1458 28.4324 11.7416C28.224 11.2073 27.9772 10.825 27.5761 10.4239C27.2063 10.0438 26.756 9.75122 26.2584 9.56767C25.8542 9.41038 25.248 9.22392 24.1303 9.17288ZM18.0365 22.0323C18.8539 22.3725 19.764 22.4184 20.6115 22.1622C21.4589 21.9059 22.1911 21.3634 22.683 20.6273C23.1749 19.8912 23.396 19.0071 23.3085 18.1261C23.221 17.2451 22.8303 16.4218 22.2032 15.7968C21.8035 15.3973 21.3201 15.0914 20.7879 14.9012C20.2558 14.7109 19.688 14.641 19.1256 14.6964C18.5632 14.7519 18.02 14.9314 17.5353 15.222C17.0506 15.5125 16.6363 15.907 16.3223 16.3769C16.0083 16.8468 15.8024 17.3805 15.7194 17.9395C15.6364 18.4985 15.6784 19.069 15.8423 19.6099C16.0063 20.1507 16.2881 20.6485 16.6675 21.0674C17.0469 21.4862 17.5145 21.8158 18.0365 22.0323ZM15.3355 14.3354C15.8824 13.7885 16.5317 13.3546 17.2462 13.0587C17.9608 12.7627 18.7266 12.6103 19.5001 12.6103C20.2735 12.6103 21.0394 12.7627 21.7539 13.0587C22.4685 13.3546 23.1178 13.7885 23.6647 14.3354C24.2116 14.8823 24.6454 15.5315 24.9414 16.2461C25.2374 16.9607 25.3897 17.7265 25.3897 18.5C25.3897 19.2734 25.2374 20.0393 24.9414 20.7538C24.6454 21.4684 24.2116 22.1176 23.6647 22.6645C22.5601 23.7691 21.0621 24.3896 19.5001 24.3896C17.9381 24.3896 16.44 23.7691 15.3355 22.6645C14.231 21.56 13.6105 20.062 13.6105 18.5C13.6105 16.9379 14.231 15.4399 15.3355 14.3354ZM26.6959 13.4875C26.8314 13.3596 26.9399 13.2059 27.015 13.0353C27.09 12.8648 27.1301 12.681 27.1328 12.4947C27.1355 12.3084 27.1008 12.1234 27.0308 11.9508C26.9608 11.7782 26.8568 11.6213 26.725 11.4896C26.5933 11.3578 26.4365 11.2539 26.2638 11.1838C26.0912 11.1138 25.9062 11.0791 25.7199 11.0818C25.5337 11.0845 25.3498 11.1246 25.1793 11.1996C25.0087 11.2747 24.855 11.3832 24.7272 11.5187C24.4785 11.7823 24.3424 12.1324 24.3477 12.4947C24.353 12.857 24.4992 13.203 24.7555 13.4592C25.0117 13.7154 25.3576 13.8617 25.7199 13.8669C26.0822 13.8722 26.4323 13.7361 26.6959 13.4875Z" fill="black" fill-opacity="0.59"/>
<defs>
<clipPath id="clip0_35_117">
<rect width="32" height="34" fill="white" transform="translate(273 1)"/>
</clipPath>
</defs>
</svg>
