{
	"asset":{
		"generator":"Khronos glTF Blender I/O v4.1.63",
		"version":"2.0"
	},
	"scene":0,
	"scenes":[
		{
			"name":"Scene",
			"nodes":[
				2
			]
		}
	],
	"nodes":[
		{
			"mesh":0,
			"name":"Line004_02 - Default_0"
		},
		{
			"mesh":1,
			"name":"Line004_idaheart_default_0"
		},
		{
			"children":[
				0,
				1
			],
			"name":"Sketchfab Model",
			"rotation":[
				0,
				-0.9969176650047302,
				0,
				0.07845517247915268
			],
			"scale":[
				-0.26477986574172974,
				-0.2647797167301178,
				-0.2647799253463745
			],
			"translation":[
				1.363742709159851,
				2.0949714183807373,
				8.294419288635254
			]
		}
	],
	"materials":[
		{
			"alphaMode":"BLEND",
			"doubleSided":true,
			"name":"02_-_Default",
			"pbrMetallicRoughness":{
				"baseColorFactor":[
					1,
					1,
					1,
					0.5200076103210449
				],
				"roughnessFactor":0
			}
		},
		{
			"alphaMode":"BLEND",
			"doubleSided":true,
			"name":"idaheart_default",
			"pbrMetallicRoughness":{
				"baseColorFactor":[
					1,
					1,
					1,
					0.06269054859876633
				],
				"roughnessFactor":0
			}
		}
	],
	"meshes":[
		{
			"name":"Line004_02 - Default_0",
			"primitives":[
				{
					"attributes":{
						"POSITION":0,
						"NORMAL":1
					},
					"indices":2,
					"material":0
				}
			]
		},
		{
			"name":"Line004_idaheart_default_0",
			"primitives":[
				{
					"attributes":{
						"POSITION":3,
						"NORMAL":4
					},
					"indices":2,
					"material":1
				}
			]
		}
	],
	"accessors":[
		{
			"bufferView":0,
			"componentType":5126,
			"count":546,
			"max":[
				36.800479888916016,
				7.629569053649902,
				3.856182098388672
			],
			"min":[
				-36.80022430419922,
				-80.23436737060547,
				-69.70782470703125
			],
			"type":"VEC3"
		},
		{
			"bufferView":1,
			"componentType":5126,
			"count":546,
			"type":"VEC3"
		},
		{
			"bufferView":2,
			"componentType":5123,
			"count":546,
			"type":"SCALAR"
		},
		{
			"bufferView":3,
			"componentType":5126,
			"count":546,
			"max":[
				34.793575286865234,
				5.602421283721924,
				2.0935769081115723
			],
			"min":[
				-35.28017044067383,
				-78.20721435546875,
				-67.98572540283203
			],
			"type":"VEC3"
		},
		{
			"bufferView":4,
			"componentType":5126,
			"count":546,
			"type":"VEC3"
		}
	],
	"bufferViews":[
		{
			"buffer":0,
			"byteLength":6552,
			"byteOffset":0,
			"target":34962
		},
		{
			"buffer":0,
			"byteLength":6552,
			"byteOffset":6552,
			"target":34962
		},
		{
			"buffer":0,
			"byteLength":1092,
			"byteOffset":13104,
			"target":34963
		},
		{
			"buffer":0,
			"byteLength":6552,
			"byteOffset":14196,
			"target":34962
		},
		{
			"buffer":0,
			"byteLength":6552,
			"byteOffset":20748,
			"target":34962
		}
	],
	"buffers":[
		{
			"byteLength":27300,
			"uri":"diamond.bin"
		}
	]
}
