<svg width="22" height="27" viewBox="0 0 22 27" fill="none" xmlns="http://www.w3.org/2000/svg">
<path d="M18.5625 7.17187H14.7641C14.6745 6.02286 14.2392 4.95605 13.5432 4.17971C12.8473 3.40336 11.9405 2.97321 11 2.97321C10.0595 2.97321 9.15274 3.40336 8.45676 4.17971C7.76077 4.95605 7.32551 6.02286 7.23594 7.17187H3.4375C3.164 7.17187 2.90169 7.30521 2.7083 7.54256C2.5149 7.77991 2.40625 8.10183 2.40625 8.43749V21.9375C2.40625 22.2732 2.5149 22.5951 2.7083 22.8324C2.90169 23.0698 3.164 23.2031 3.4375 23.2031H18.5625C18.836 23.2031 19.0983 23.0698 19.2917 22.8324C19.4851 22.5951 19.5938 22.2732 19.5938 21.9375V8.43749C19.5938 8.10183 19.4851 7.77991 19.2917 7.54256C19.0983 7.30521 18.836 7.17187 18.5625 7.17187ZM11 3.79687C11.7608 3.79859 12.4946 4.14334 13.0618 4.76559C13.629 5.38784 13.9902 6.2442 14.0766 7.17187H7.92344C8.00984 6.2442 8.37099 5.38784 8.93822 4.76559C9.50544 4.14334 10.2392 3.79859 11 3.79687ZM18.9062 21.9375C18.9062 22.0494 18.87 22.1567 18.8056 22.2358C18.7411 22.3149 18.6537 22.3594 18.5625 22.3594H3.4375C3.34633 22.3594 3.2589 22.3149 3.19443 22.2358C3.12997 22.1567 3.09375 22.0494 3.09375 21.9375V8.43749C3.09375 8.3256 3.12997 8.2183 3.19443 8.13918C3.2589 8.06006 3.34633 8.01562 3.4375 8.01562H18.5625C18.6537 8.01562 18.7411 8.06006 18.8056 8.13918C18.87 8.2183 18.9062 8.3256 18.9062 8.43749V21.9375Z" fill="black"/>
</svg>
